<mxfile host="app.diagrams.net" modified="2024-04-26T20:56:33.711Z" agent="Mozilla/5.0 (X11; Linux x86_64) AppleWebKit/537.36 (KHTML, like Gecko) Chrome/124.0.0.0 Safari/537.36" etag="w4tMiRBZsKaZ1tZbDyDi" version="24.3.0" type="device">
  <diagram name="Halaman-1" id="kj9NPrpX5oRtIHgWif-Y">
    <mxGraphModel dx="989" dy="1716" grid="1" gridSize="10" guides="1" tooltips="1" connect="1" arrows="1" fold="1" page="1" pageScale="1" pageWidth="827" pageHeight="1169" math="0" shadow="0">
      <root>
        <mxCell id="0" />
        <mxCell id="1" parent="0" />
        <mxCell id="pXclADTk_RIPoV-AhBCz-6" value="user" style="swimlane;fontStyle=0;childLayout=stackLayout;horizontal=1;startSize=30;horizontalStack=0;resizeParent=1;resizeParentMax=0;resizeLast=0;collapsible=1;marginBottom=0;whiteSpace=wrap;html=1;" vertex="1" parent="1">
          <mxGeometry x="20" y="50" width="140" height="150" as="geometry">
            <mxRectangle x="120" y="70" width="60" height="30" as="alternateBounds" />
          </mxGeometry>
        </mxCell>
        <mxCell id="pXclADTk_RIPoV-AhBCz-7" value="user_id" style="text;strokeColor=#b85450;fillColor=#f8cecc;align=left;verticalAlign=middle;spacingLeft=4;spacingRight=4;overflow=hidden;points=[[0,0.5],[1,0.5]];portConstraint=eastwest;rotatable=0;whiteSpace=wrap;html=1;" vertex="1" parent="pXclADTk_RIPoV-AhBCz-6">
          <mxGeometry y="30" width="140" height="30" as="geometry" />
        </mxCell>
        <mxCell id="pXclADTk_RIPoV-AhBCz-8" value="name" style="text;strokeColor=none;fillColor=none;align=left;verticalAlign=middle;spacingLeft=4;spacingRight=4;overflow=hidden;points=[[0,0.5],[1,0.5]];portConstraint=eastwest;rotatable=0;whiteSpace=wrap;html=1;" vertex="1" parent="pXclADTk_RIPoV-AhBCz-6">
          <mxGeometry y="60" width="140" height="30" as="geometry" />
        </mxCell>
        <mxCell id="pXclADTk_RIPoV-AhBCz-9" value="phone_number" style="text;strokeColor=none;fillColor=none;align=left;verticalAlign=middle;spacingLeft=4;spacingRight=4;overflow=hidden;points=[[0,0.5],[1,0.5]];portConstraint=eastwest;rotatable=0;whiteSpace=wrap;html=1;" vertex="1" parent="pXclADTk_RIPoV-AhBCz-6">
          <mxGeometry y="90" width="140" height="30" as="geometry" />
        </mxCell>
        <mxCell id="pXclADTk_RIPoV-AhBCz-10" value="password (hashed)" style="text;strokeColor=none;fillColor=none;align=left;verticalAlign=middle;spacingLeft=4;spacingRight=4;overflow=hidden;points=[[0,0.5],[1,0.5]];portConstraint=eastwest;rotatable=0;whiteSpace=wrap;html=1;" vertex="1" parent="pXclADTk_RIPoV-AhBCz-6">
          <mxGeometry y="120" width="140" height="30" as="geometry" />
        </mxCell>
        <mxCell id="pXclADTk_RIPoV-AhBCz-12" value="conversation" style="swimlane;fontStyle=0;childLayout=stackLayout;horizontal=1;startSize=30;horizontalStack=0;resizeParent=1;resizeParentMax=0;resizeLast=0;collapsible=1;marginBottom=0;whiteSpace=wrap;html=1;swimlaneFillColor=none;" vertex="1" parent="1">
          <mxGeometry x="274" y="190" width="140" height="120" as="geometry">
            <mxRectangle x="120" y="70" width="60" height="30" as="alternateBounds" />
          </mxGeometry>
        </mxCell>
        <mxCell id="pXclADTk_RIPoV-AhBCz-13" value="conversation_id" style="text;strokeColor=none;fillColor=none;align=left;verticalAlign=middle;spacingLeft=4;spacingRight=4;overflow=hidden;points=[[0,0.5],[1,0.5]];portConstraint=eastwest;rotatable=0;whiteSpace=wrap;html=1;" vertex="1" parent="pXclADTk_RIPoV-AhBCz-12">
          <mxGeometry y="30" width="140" height="30" as="geometry" />
        </mxCell>
        <mxCell id="pXclADTk_RIPoV-AhBCz-15" value="sender_id" style="text;align=left;verticalAlign=middle;spacingLeft=4;spacingRight=4;overflow=hidden;points=[[0,0.5],[1,0.5]];portConstraint=eastwest;rotatable=0;whiteSpace=wrap;html=1;" vertex="1" parent="pXclADTk_RIPoV-AhBCz-12">
          <mxGeometry y="60" width="140" height="30" as="geometry" />
        </mxCell>
        <mxCell id="pXclADTk_RIPoV-AhBCz-16" value="receiver_id" style="text;align=left;verticalAlign=middle;spacingLeft=4;spacingRight=4;overflow=hidden;points=[[0,0.5],[1,0.5]];portConstraint=eastwest;rotatable=0;whiteSpace=wrap;html=1;" vertex="1" parent="pXclADTk_RIPoV-AhBCz-12">
          <mxGeometry y="90" width="140" height="30" as="geometry" />
        </mxCell>
        <mxCell id="pXclADTk_RIPoV-AhBCz-18" value="messages" style="swimlane;fontStyle=0;childLayout=stackLayout;horizontal=1;startSize=30;horizontalStack=0;resizeParent=1;resizeParentMax=0;resizeLast=0;collapsible=1;marginBottom=0;whiteSpace=wrap;html=1;swimlaneFillColor=none;" vertex="1" parent="1">
          <mxGeometry x="560" y="160" width="140" height="120" as="geometry">
            <mxRectangle x="120" y="70" width="60" height="30" as="alternateBounds" />
          </mxGeometry>
        </mxCell>
        <mxCell id="pXclADTk_RIPoV-AhBCz-20" value="message" style="text;align=left;verticalAlign=middle;spacingLeft=4;spacingRight=4;overflow=hidden;points=[[0,0.5],[1,0.5]];portConstraint=eastwest;rotatable=0;whiteSpace=wrap;html=1;" vertex="1" parent="pXclADTk_RIPoV-AhBCz-18">
          <mxGeometry y="30" width="140" height="30" as="geometry" />
        </mxCell>
        <mxCell id="pXclADTk_RIPoV-AhBCz-107" value="reciever_status" style="text;align=left;verticalAlign=middle;spacingLeft=4;spacingRight=4;overflow=hidden;points=[[0,0.5],[1,0.5]];portConstraint=eastwest;rotatable=0;whiteSpace=wrap;html=1;" vertex="1" parent="pXclADTk_RIPoV-AhBCz-18">
          <mxGeometry y="60" width="140" height="30" as="geometry" />
        </mxCell>
        <mxCell id="pXclADTk_RIPoV-AhBCz-21" value="attachment" style="text;align=left;verticalAlign=middle;spacingLeft=4;spacingRight=4;overflow=hidden;points=[[0,0.5],[1,0.5]];portConstraint=eastwest;rotatable=0;whiteSpace=wrap;html=1;fillColor=#f5f5f5;fontColor=#333333;strokeColor=#666666;" vertex="1" parent="pXclADTk_RIPoV-AhBCz-18">
          <mxGeometry y="90" width="140" height="30" as="geometry" />
        </mxCell>
        <mxCell id="pXclADTk_RIPoV-AhBCz-33" value="attachment" style="swimlane;fontStyle=0;childLayout=stackLayout;horizontal=1;startSize=30;horizontalStack=0;resizeParent=1;resizeParentMax=0;resizeLast=0;collapsible=1;marginBottom=0;whiteSpace=wrap;html=1;swimlaneFillColor=none;fillColor=#f5f5f5;fontColor=#333333;strokeColor=#666666;" vertex="1" parent="1">
          <mxGeometry x="770" y="330" width="140" height="120" as="geometry">
            <mxRectangle x="120" y="70" width="60" height="30" as="alternateBounds" />
          </mxGeometry>
        </mxCell>
        <mxCell id="pXclADTk_RIPoV-AhBCz-34" value="file_name" style="text;strokeColor=none;fillColor=none;align=left;verticalAlign=middle;spacingLeft=4;spacingRight=4;overflow=hidden;points=[[0,0.5],[1,0.5]];portConstraint=eastwest;rotatable=0;whiteSpace=wrap;html=1;" vertex="1" parent="pXclADTk_RIPoV-AhBCz-33">
          <mxGeometry y="30" width="140" height="30" as="geometry" />
        </mxCell>
        <mxCell id="pXclADTk_RIPoV-AhBCz-35" value="file_type" style="text;align=left;verticalAlign=middle;spacingLeft=4;spacingRight=4;overflow=hidden;points=[[0,0.5],[1,0.5]];portConstraint=eastwest;rotatable=0;whiteSpace=wrap;html=1;" vertex="1" parent="pXclADTk_RIPoV-AhBCz-33">
          <mxGeometry y="60" width="140" height="30" as="geometry" />
        </mxCell>
        <mxCell id="pXclADTk_RIPoV-AhBCz-36" value="file_url" style="text;strokeColor=none;fillColor=none;align=left;verticalAlign=middle;spacingLeft=4;spacingRight=4;overflow=hidden;points=[[0,0.5],[1,0.5]];portConstraint=eastwest;rotatable=0;whiteSpace=wrap;html=1;" vertex="1" parent="pXclADTk_RIPoV-AhBCz-33">
          <mxGeometry y="90" width="140" height="30" as="geometry" />
        </mxCell>
        <mxCell id="pXclADTk_RIPoV-AhBCz-61" value="group" style="swimlane;fontStyle=0;childLayout=stackLayout;horizontal=1;startSize=30;horizontalStack=0;resizeParent=1;resizeParentMax=0;resizeLast=0;collapsible=1;marginBottom=0;whiteSpace=wrap;html=1;" vertex="1" parent="1">
          <mxGeometry x="274" y="-150" width="140" height="150" as="geometry" />
        </mxCell>
        <mxCell id="pXclADTk_RIPoV-AhBCz-62" value="group_id" style="text;strokeColor=none;fillColor=none;align=left;verticalAlign=middle;spacingLeft=4;spacingRight=4;overflow=hidden;points=[[0,0.5],[1,0.5]];portConstraint=eastwest;rotatable=0;whiteSpace=wrap;html=1;" vertex="1" parent="pXclADTk_RIPoV-AhBCz-61">
          <mxGeometry y="30" width="140" height="30" as="geometry" />
        </mxCell>
        <mxCell id="pXclADTk_RIPoV-AhBCz-99" value="messages" style="text;strokeColor=#6c8ebf;fillColor=#DAE8FC;align=left;verticalAlign=middle;spacingLeft=4;spacingRight=4;overflow=hidden;points=[[0,0.5],[1,0.5]];portConstraint=eastwest;rotatable=0;whiteSpace=wrap;html=1;" vertex="1" parent="pXclADTk_RIPoV-AhBCz-61">
          <mxGeometry y="60" width="140" height="30" as="geometry" />
        </mxCell>
        <mxCell id="pXclADTk_RIPoV-AhBCz-64" value="created_by" style="text;strokeColor=#b85450;fillColor=#f8cecc;align=left;verticalAlign=middle;spacingLeft=4;spacingRight=4;overflow=hidden;points=[[0,0.5],[1,0.5]];portConstraint=eastwest;rotatable=0;whiteSpace=wrap;html=1;" vertex="1" parent="pXclADTk_RIPoV-AhBCz-61">
          <mxGeometry y="90" width="140" height="30" as="geometry" />
        </mxCell>
        <mxCell id="pXclADTk_RIPoV-AhBCz-63" value="members" style="text;strokeColor=#10739e;fillColor=#b1ddf0;align=left;verticalAlign=middle;spacingLeft=4;spacingRight=4;overflow=hidden;points=[[0,0.5],[1,0.5]];portConstraint=eastwest;rotatable=0;whiteSpace=wrap;html=1;" vertex="1" parent="pXclADTk_RIPoV-AhBCz-61">
          <mxGeometry y="120" width="140" height="30" as="geometry" />
        </mxCell>
        <mxCell id="pXclADTk_RIPoV-AhBCz-71" value="members" style="swimlane;fontStyle=0;childLayout=stackLayout;horizontal=1;startSize=30;horizontalStack=0;resizeParent=1;resizeParentMax=0;resizeLast=0;collapsible=1;marginBottom=0;whiteSpace=wrap;html=1;fillColor=#d0cee2;strokeColor=#56517e;" vertex="1" parent="1">
          <mxGeometry x="530" y="10" width="200" height="90" as="geometry" />
        </mxCell>
        <mxCell id="pXclADTk_RIPoV-AhBCz-72" value="user_id" style="text;strokeColor=none;fillColor=none;align=left;verticalAlign=middle;spacingLeft=4;spacingRight=4;overflow=hidden;points=[[0,0.5],[1,0.5]];portConstraint=eastwest;rotatable=0;whiteSpace=wrap;html=1;" vertex="1" parent="pXclADTk_RIPoV-AhBCz-71">
          <mxGeometry y="30" width="200" height="30" as="geometry" />
        </mxCell>
        <mxCell id="pXclADTk_RIPoV-AhBCz-73" value="roles {&quot;admin&quot; / &quot;member&quot; }" style="text;align=left;verticalAlign=middle;spacingLeft=4;spacingRight=4;overflow=hidden;points=[[0,0.5],[1,0.5]];portConstraint=eastwest;rotatable=0;whiteSpace=wrap;html=1;" vertex="1" parent="pXclADTk_RIPoV-AhBCz-71">
          <mxGeometry y="60" width="200" height="30" as="geometry" />
        </mxCell>
        <mxCell id="pXclADTk_RIPoV-AhBCz-83" style="edgeStyle=orthogonalEdgeStyle;rounded=0;orthogonalLoop=1;jettySize=auto;html=1;entryX=0.5;entryY=0;entryDx=0;entryDy=0;" edge="1" parent="1" source="pXclADTk_RIPoV-AhBCz-21" target="pXclADTk_RIPoV-AhBCz-33">
          <mxGeometry relative="1" as="geometry" />
        </mxCell>
        <mxCell id="pXclADTk_RIPoV-AhBCz-84" value="detail" style="edgeLabel;html=1;align=center;verticalAlign=middle;resizable=0;points=[];" vertex="1" connectable="0" parent="pXclADTk_RIPoV-AhBCz-83">
          <mxGeometry x="0.484" y="1" relative="1" as="geometry">
            <mxPoint x="-41" y="1" as="offset" />
          </mxGeometry>
        </mxCell>
        <mxCell id="pXclADTk_RIPoV-AhBCz-86" style="edgeStyle=orthogonalEdgeStyle;rounded=0;orthogonalLoop=1;jettySize=auto;html=1;entryX=0;entryY=0.25;entryDx=0;entryDy=0;" edge="1" parent="1" source="pXclADTk_RIPoV-AhBCz-63" target="pXclADTk_RIPoV-AhBCz-71">
          <mxGeometry relative="1" as="geometry" />
        </mxCell>
        <mxCell id="pXclADTk_RIPoV-AhBCz-87" value="detail" style="edgeLabel;html=1;align=center;verticalAlign=middle;resizable=0;points=[];" vertex="1" connectable="0" parent="pXclADTk_RIPoV-AhBCz-86">
          <mxGeometry x="-0.0423" y="-1" relative="1" as="geometry">
            <mxPoint as="offset" />
          </mxGeometry>
        </mxCell>
        <mxCell id="pXclADTk_RIPoV-AhBCz-88" style="edgeStyle=orthogonalEdgeStyle;rounded=0;orthogonalLoop=1;jettySize=auto;html=1;entryX=0;entryY=0.5;entryDx=0;entryDy=0;" edge="1" parent="1" source="pXclADTk_RIPoV-AhBCz-7" target="pXclADTk_RIPoV-AhBCz-15">
          <mxGeometry relative="1" as="geometry" />
        </mxCell>
        <mxCell id="pXclADTk_RIPoV-AhBCz-89" style="edgeStyle=orthogonalEdgeStyle;rounded=0;orthogonalLoop=1;jettySize=auto;html=1;entryX=0;entryY=0.5;entryDx=0;entryDy=0;" edge="1" parent="1" source="pXclADTk_RIPoV-AhBCz-7" target="pXclADTk_RIPoV-AhBCz-16">
          <mxGeometry relative="1" as="geometry" />
        </mxCell>
        <mxCell id="pXclADTk_RIPoV-AhBCz-90" value="user can be sender or reciever" style="edgeLabel;html=1;align=center;verticalAlign=middle;resizable=0;points=[];" vertex="1" connectable="0" parent="1">
          <mxGeometry x="180" y="229.9999897959198" as="geometry" />
        </mxCell>
        <mxCell id="pXclADTk_RIPoV-AhBCz-94" style="edgeStyle=orthogonalEdgeStyle;rounded=0;orthogonalLoop=1;jettySize=auto;html=1;entryX=0;entryY=0.5;entryDx=0;entryDy=0;" edge="1" parent="1" source="pXclADTk_RIPoV-AhBCz-7" target="pXclADTk_RIPoV-AhBCz-64">
          <mxGeometry relative="1" as="geometry" />
        </mxCell>
        <mxCell id="pXclADTk_RIPoV-AhBCz-130" value="user can create group" style="edgeLabel;html=1;align=center;verticalAlign=middle;resizable=0;points=[];" vertex="1" connectable="0" parent="pXclADTk_RIPoV-AhBCz-94">
          <mxGeometry x="0.1711" y="1" relative="1" as="geometry">
            <mxPoint y="17" as="offset" />
          </mxGeometry>
        </mxCell>
        <mxCell id="pXclADTk_RIPoV-AhBCz-95" value="messages" style="swimlane;fontStyle=0;childLayout=stackLayout;horizontal=1;startSize=30;horizontalStack=0;resizeParent=1;resizeParentMax=0;resizeLast=0;collapsible=1;marginBottom=0;whiteSpace=wrap;html=1;swimlaneFillColor=none;fillColor=#dae8fc;strokeColor=#6c8ebf;" vertex="1" parent="1">
          <mxGeometry x="560" y="-190" width="140" height="150" as="geometry">
            <mxRectangle x="120" y="70" width="60" height="30" as="alternateBounds" />
          </mxGeometry>
        </mxCell>
        <mxCell id="pXclADTk_RIPoV-AhBCz-104" value="sender_id" style="text;align=left;verticalAlign=middle;spacingLeft=4;spacingRight=4;overflow=hidden;points=[[0,0.5],[1,0.5]];portConstraint=eastwest;rotatable=0;whiteSpace=wrap;html=1;" vertex="1" parent="pXclADTk_RIPoV-AhBCz-95">
          <mxGeometry y="30" width="140" height="30" as="geometry" />
        </mxCell>
        <mxCell id="pXclADTk_RIPoV-AhBCz-97" value="message" style="text;align=left;verticalAlign=middle;spacingLeft=4;spacingRight=4;overflow=hidden;points=[[0,0.5],[1,0.5]];portConstraint=eastwest;rotatable=0;whiteSpace=wrap;html=1;" vertex="1" parent="pXclADTk_RIPoV-AhBCz-95">
          <mxGeometry y="60" width="140" height="30" as="geometry" />
        </mxCell>
        <mxCell id="pXclADTk_RIPoV-AhBCz-105" value="list_of_reciever_id" style="text;align=left;verticalAlign=middle;spacingLeft=4;spacingRight=4;overflow=hidden;points=[[0,0.5],[1,0.5]];portConstraint=eastwest;rotatable=0;whiteSpace=wrap;html=1;fillColor=#f8cecc;strokeColor=#b85450;" vertex="1" parent="pXclADTk_RIPoV-AhBCz-95">
          <mxGeometry y="90" width="140" height="30" as="geometry" />
        </mxCell>
        <mxCell id="pXclADTk_RIPoV-AhBCz-98" value="attachment" style="text;align=left;verticalAlign=middle;spacingLeft=4;spacingRight=4;overflow=hidden;points=[[0,0.5],[1,0.5]];portConstraint=eastwest;rotatable=0;whiteSpace=wrap;html=1;fillColor=#f5f5f5;fontColor=#333333;strokeColor=#666666;" vertex="1" parent="pXclADTk_RIPoV-AhBCz-95">
          <mxGeometry y="120" width="140" height="30" as="geometry" />
        </mxCell>
        <mxCell id="pXclADTk_RIPoV-AhBCz-100" style="edgeStyle=orthogonalEdgeStyle;rounded=0;orthogonalLoop=1;jettySize=auto;html=1;entryX=0.5;entryY=0;entryDx=0;entryDy=0;" edge="1" parent="1" source="pXclADTk_RIPoV-AhBCz-98" target="pXclADTk_RIPoV-AhBCz-33">
          <mxGeometry relative="1" as="geometry" />
        </mxCell>
        <mxCell id="pXclADTk_RIPoV-AhBCz-103" value="detail" style="edgeLabel;html=1;align=center;verticalAlign=middle;resizable=0;points=[];rotation=0;" vertex="1" connectable="0" parent="pXclADTk_RIPoV-AhBCz-100">
          <mxGeometry x="-0.589" y="2" relative="1" as="geometry">
            <mxPoint x="-42" y="2" as="offset" />
          </mxGeometry>
        </mxCell>
        <mxCell id="pXclADTk_RIPoV-AhBCz-101" style="edgeStyle=orthogonalEdgeStyle;rounded=0;orthogonalLoop=1;jettySize=auto;html=1;entryX=-0.025;entryY=0.121;entryDx=0;entryDy=0;entryPerimeter=0;" edge="1" parent="1" source="pXclADTk_RIPoV-AhBCz-99" target="pXclADTk_RIPoV-AhBCz-95">
          <mxGeometry relative="1" as="geometry" />
        </mxCell>
        <mxCell id="pXclADTk_RIPoV-AhBCz-102" value="detail" style="edgeLabel;html=1;align=center;verticalAlign=middle;resizable=0;points=[];" vertex="1" connectable="0" parent="pXclADTk_RIPoV-AhBCz-101">
          <mxGeometry x="-0.1075" y="1" relative="1" as="geometry">
            <mxPoint as="offset" />
          </mxGeometry>
        </mxCell>
        <mxCell id="pXclADTk_RIPoV-AhBCz-124" style="edgeStyle=orthogonalEdgeStyle;rounded=0;orthogonalLoop=1;jettySize=auto;html=1;entryX=0.017;entryY=0.123;entryDx=0;entryDy=0;entryPerimeter=0;" edge="1" parent="1" source="pXclADTk_RIPoV-AhBCz-15" target="pXclADTk_RIPoV-AhBCz-18">
          <mxGeometry relative="1" as="geometry" />
        </mxCell>
        <mxCell id="pXclADTk_RIPoV-AhBCz-126" style="edgeStyle=orthogonalEdgeStyle;rounded=0;orthogonalLoop=1;jettySize=auto;html=1;entryX=0.007;entryY=0.123;entryDx=0;entryDy=0;entryPerimeter=0;" edge="1" parent="1" source="pXclADTk_RIPoV-AhBCz-16" target="pXclADTk_RIPoV-AhBCz-18">
          <mxGeometry relative="1" as="geometry" />
        </mxCell>
        <mxCell id="pXclADTk_RIPoV-AhBCz-128" value="sender or reciever&lt;div&gt;has each messages&lt;/div&gt;" style="edgeLabel;html=1;align=center;verticalAlign=middle;resizable=0;points=[];" vertex="1" connectable="0" parent="pXclADTk_RIPoV-AhBCz-126">
          <mxGeometry x="0.1411" y="-3" relative="1" as="geometry">
            <mxPoint as="offset" />
          </mxGeometry>
        </mxCell>
        <mxCell id="pXclADTk_RIPoV-AhBCz-133" value="list_of_reciever_id" style="swimlane;fontStyle=0;childLayout=stackLayout;horizontal=1;startSize=30;horizontalStack=0;resizeParent=1;resizeParentMax=0;resizeLast=0;collapsible=1;marginBottom=0;whiteSpace=wrap;html=1;fillColor=#f8cecc;strokeColor=#b85450;" vertex="1" parent="1">
          <mxGeometry x="760" y="-200" width="210" height="60" as="geometry" />
        </mxCell>
        <mxCell id="pXclADTk_RIPoV-AhBCz-134" value="status {&quot;sent&quot; / &quot;read&quot; / &quot;pending&quot;}" style="text;strokeColor=none;fillColor=none;align=left;verticalAlign=middle;spacingLeft=4;spacingRight=4;overflow=hidden;points=[[0,0.5],[1,0.5]];portConstraint=eastwest;rotatable=0;whiteSpace=wrap;html=1;" vertex="1" parent="pXclADTk_RIPoV-AhBCz-133">
          <mxGeometry y="30" width="210" height="30" as="geometry" />
        </mxCell>
        <mxCell id="pXclADTk_RIPoV-AhBCz-138" style="edgeStyle=orthogonalEdgeStyle;rounded=0;orthogonalLoop=1;jettySize=auto;html=1;entryX=0;entryY=0.25;entryDx=0;entryDy=0;" edge="1" parent="1" source="pXclADTk_RIPoV-AhBCz-105" target="pXclADTk_RIPoV-AhBCz-133">
          <mxGeometry relative="1" as="geometry" />
        </mxCell>
        <mxCell id="pXclADTk_RIPoV-AhBCz-139" value="detail" style="edgeLabel;html=1;align=center;verticalAlign=middle;resizable=0;points=[];" vertex="1" connectable="0" parent="pXclADTk_RIPoV-AhBCz-138">
          <mxGeometry x="0.0051" y="-2" relative="1" as="geometry">
            <mxPoint as="offset" />
          </mxGeometry>
        </mxCell>
      </root>
    </mxGraphModel>
  </diagram>
</mxfile>
